<svg width="1440" height="1024" viewBox="0 0 1440 1024" fill="none" xmlns="http://www.w3.org/2000/svg">
<g clip-path="url(#clip0)">
<rect width="1440" height="1024" fill="white"/>
<rect width="1440" height="1024" fill="url(#paint0_linear)"/>
<rect opacity="0.08" x="-233" y="10.0195" width="526.04" height="526.04" rx="151" transform="rotate(-30 -233 10.0195)" fill="url(#paint1_linear)" fill-opacity="0.8"/>
<rect opacity="0.08" x="1427.38" y="860.776" width="526.04" height="526.04" rx="151" transform="rotate(-165.985 1427.38 860.776)" fill="url(#paint2_linear)"/>
<g clip-path="url(#clip1)">
<path d="M189.672 454.191C193.219 456.14 196.017 458.938 198.016 462.485C200.014 466.082 201.063 470.179 201.063 474.876C201.063 479.522 200.064 483.669 198.016 487.267C196.017 490.864 193.219 493.662 189.672 495.61C186.124 497.559 182.127 498.558 177.631 498.558C174.483 498.558 171.585 498.009 168.937 496.909C166.289 495.81 164.091 494.161 162.342 491.963V497.909H152V433.807H162.792V457.439C164.641 455.44 166.789 453.892 169.337 452.842C171.835 451.793 174.583 451.294 177.581 451.294C182.077 451.244 186.124 452.243 189.672 454.191ZM186.224 485.318C188.772 482.67 190.072 479.173 190.072 474.876C190.072 470.529 188.772 467.082 186.224 464.434C183.676 461.786 180.379 460.437 176.432 460.437C173.834 460.437 171.485 461.036 169.437 462.185C167.339 463.385 165.74 465.033 164.491 467.232C163.292 469.43 162.692 471.978 162.692 474.826C162.692 477.724 163.292 480.222 164.491 482.42C165.69 484.619 167.339 486.317 169.437 487.466C171.535 488.666 173.834 489.215 176.432 489.215C180.379 489.315 183.626 488.016 186.224 485.318Z" fill="#FF8228"/>
<path d="M216.502 443.3H196.417V433.807H247.778V443.3H227.693V497.959H216.452V443.3H216.502Z" fill="#FF8228"/>
<path d="M279.155 456.14C282.752 459.387 284.551 464.333 284.551 470.878V497.958H274.358V492.312C273.009 494.311 271.161 495.86 268.713 496.959C266.264 498.008 263.317 498.558 259.869 498.558C256.422 498.558 253.374 497.958 250.776 496.809C248.178 495.61 246.18 493.961 244.781 491.863C243.382 489.764 242.682 487.366 242.682 484.718C242.682 480.571 244.231 477.224 247.329 474.726C250.426 472.227 255.273 470.978 261.918 470.978H273.859V470.279C273.859 467.031 272.91 464.583 270.961 462.834C269.012 461.086 266.165 460.236 262.367 460.236C259.769 460.236 257.221 460.636 254.723 461.436C252.225 462.235 250.077 463.384 248.378 464.833L244.131 456.939C246.529 455.09 249.477 453.691 252.874 452.692C256.272 451.693 259.869 451.243 263.666 451.243C270.361 451.243 275.558 452.892 279.155 456.14ZM269.312 488.865C271.411 487.616 272.91 485.867 273.759 483.569V478.223H262.617C256.372 478.223 253.274 480.271 253.274 484.368C253.274 486.317 254.074 487.866 255.622 489.015C257.171 490.164 259.32 490.764 262.118 490.764C264.766 490.714 267.214 490.064 269.312 488.865Z" fill="#FF8228"/>
<path d="M299.939 497.11C296.342 496.11 293.494 494.911 291.396 493.412L295.543 485.219C297.641 486.617 300.089 487.717 303.037 488.566C305.935 489.415 308.833 489.815 311.631 489.815C318.076 489.815 321.323 488.116 321.323 484.719C321.323 483.12 320.524 481.971 318.875 481.321C317.226 480.672 314.578 480.072 310.981 479.523C307.184 478.923 304.086 478.274 301.688 477.524C299.29 476.775 297.241 475.476 295.443 473.577C293.694 471.729 292.795 469.081 292.795 465.733C292.795 461.336 294.643 457.839 298.291 455.241C301.938 452.643 306.884 451.294 313.129 451.294C316.277 451.294 319.475 451.644 322.622 452.393C325.77 453.093 328.368 454.092 330.417 455.291L326.27 463.485C322.373 461.187 317.926 460.037 313.03 460.037C309.882 460.037 307.434 460.537 305.785 461.486C304.136 462.436 303.337 463.685 303.337 465.233C303.337 466.982 304.236 468.181 305.985 468.931C307.734 469.63 310.481 470.33 314.179 470.979C317.876 471.579 320.874 472.228 323.272 472.978C325.62 473.727 327.669 474.976 329.367 476.775C331.066 478.574 331.915 481.122 331.915 484.369C331.915 488.716 330.017 492.163 326.27 494.761C322.522 497.359 317.426 498.658 310.981 498.658C307.184 498.559 303.537 498.059 299.939 497.11Z" fill="#FF8228"/>
<path d="M358.496 478.173L350.452 485.768V497.959H339.66V433.807H350.452V472.578L372.835 451.843H385.825L366.54 471.229L387.624 498.059H374.484L358.496 478.173Z" fill="#FF8228"/>
<path d="M433.539 478.323H397.316C397.966 481.72 399.615 484.418 402.313 486.417C405.011 488.415 408.308 489.415 412.305 489.415C417.401 489.415 421.548 487.766 424.846 484.418L430.641 491.063C428.543 493.562 425.945 495.41 422.747 496.709C419.6 497.958 416.002 498.608 412.005 498.608C406.909 498.608 402.463 497.608 398.615 495.56C394.768 493.562 391.771 490.714 389.672 487.116C387.574 483.519 386.524 479.422 386.524 474.875C386.524 470.379 387.524 466.332 389.572 462.735C391.621 459.137 394.468 456.339 398.116 454.291C401.763 452.292 405.86 451.243 410.407 451.243C414.903 451.243 418.95 452.242 422.448 454.241C425.995 456.239 428.743 459.037 430.741 462.635C432.74 466.232 433.739 470.429 433.739 475.125C433.689 475.875 433.639 476.924 433.539 478.323ZM401.563 462.984C399.165 465.033 397.716 467.781 397.216 471.178H423.447C422.997 467.831 421.548 465.133 419.2 463.034C416.852 460.936 413.904 459.937 410.357 459.937C406.909 459.887 403.961 460.936 401.563 462.984Z" fill="#FF8228"/>
<path d="M485.8 478.323H449.577C450.227 481.72 451.876 484.418 454.574 486.417C457.272 488.415 460.569 489.415 464.566 489.415C469.662 489.415 473.809 487.766 477.107 484.418L482.902 491.063C480.804 493.562 478.206 495.41 475.008 496.709C471.861 497.958 468.263 498.608 464.266 498.608C459.17 498.608 454.723 497.608 450.876 495.56C447.029 493.562 444.031 490.714 441.933 487.116C439.835 483.519 438.785 479.422 438.785 474.875C438.785 470.379 439.785 466.332 441.833 462.735C443.882 459.137 446.729 456.339 450.377 454.291C454.024 452.292 458.121 451.243 462.668 451.243C467.164 451.243 471.211 452.242 474.709 454.241C478.256 456.239 481.004 459.037 483.002 462.635C485.001 466.232 486 470.429 486 475.125C486 475.875 485.95 476.924 485.8 478.323ZM453.874 462.984C451.476 465.033 450.027 467.781 449.527 471.178H475.758C475.308 467.831 473.859 465.133 471.511 463.034C469.163 460.936 466.215 459.937 462.668 459.937C459.17 459.887 456.272 460.936 453.874 462.984Z" fill="#FF8228"/>
<path d="M363.292 400.082H274.708C255.523 400.082 239.984 384.543 239.984 365.358V276.724C239.934 257.538 255.523 242 274.708 242H363.342C382.528 242 398.066 257.538 398.066 276.724V365.358C398.066 384.543 382.478 400.082 363.292 400.082Z" fill="#FF8228"/>
<path d="M294.493 303.803L295.593 303.204C291.196 295.36 277.606 294.41 265.315 301.105C264.566 301.305 263.666 301.805 262.917 302.504C261.268 304.003 260.619 306.002 261.518 306.951C262.417 307.9 264.466 307.451 266.115 305.902C267.763 304.403 268.413 302.404 267.514 301.455C267.464 301.405 267.464 301.405 267.414 301.405C278.705 295.859 290.596 296.858 294.493 303.803Z" fill="white"/>
<path d="M272.51 288.216C274.708 287.716 276.257 286.267 275.957 285.018V284.968C288.548 285.618 298.44 292.263 298.34 300.207H299.59C299.689 291.213 288.398 283.819 274.358 283.669C273.559 283.469 272.51 283.419 271.461 283.669C269.262 284.169 267.713 285.618 268.013 286.817C268.263 288.116 270.311 288.715 272.51 288.216Z" fill="white"/>
<path d="M343.507 282.02C335.712 284.068 327.469 299.057 320.973 312.647C320.924 308.35 319.125 304.453 315.677 302.055C309.382 297.608 299.939 300.056 294.543 307.501C289.147 314.945 289.897 324.538 296.242 328.985C299.939 331.583 304.736 331.833 309.182 330.034C308.433 331.783 307.983 333.631 307.733 335.53C307.783 335.53 307.783 335.53 307.833 335.53C313.629 336.529 320.174 334.681 325.17 330.034C327.918 327.436 329.817 324.388 330.866 321.141C331.865 321.141 333.064 321.091 334.563 320.841C339.46 319.992 349.402 315.295 352.45 313.496C359.495 309.35 352.55 304.153 357.596 295.76C362.692 287.316 352.55 279.672 343.507 282.02ZM307.334 309.449C309.132 307.301 312.03 306.751 313.829 308.2C315.677 309.649 315.727 312.597 313.929 314.746C312.18 316.894 309.232 317.443 307.434 315.995C305.585 314.546 305.535 311.598 307.334 309.449ZM352.1 301.855C353.199 307.301 351.001 312.647 334.114 317.443C327.868 318.643 325.52 317.593 322.822 318.743C320.174 319.842 319.824 320.042 319.824 320.042C319.824 320.042 319.774 320.091 319.674 320.141C319.525 320.191 319.425 320.241 319.325 320.291C319.924 318.942 320.374 317.543 320.674 316.194C327.019 305.303 344.256 275.775 351.601 288.165C353.849 292.612 351.001 296.409 352.1 301.855Z" fill="white"/>
<path d="M307.334 341.975C307.484 341.925 307.634 341.875 307.783 341.826C307.733 341.776 307.733 341.776 307.733 341.726C307.584 341.826 307.484 341.875 307.334 341.975Z" fill="white"/>
<path d="M334.813 344.623C340.259 339.527 342.358 332.482 341.009 326.287C339.61 324.738 338.011 323.389 336.312 322.34C336.262 327.436 334.014 332.732 329.717 336.779C323.372 342.725 314.528 344.074 307.833 340.826C308.083 342.575 308.533 344.373 309.232 346.072C315.977 352.317 327.219 351.718 334.813 344.623Z" fill="white"/>
<path d="M346.105 335.28C346.105 341.226 343.057 347.621 337.411 352.118C331.216 357.014 323.572 358.513 317.376 356.564C323.372 360.811 331.066 361.81 337.461 358.463H337.511L343.057 358.063L343.357 353.517C346.954 348.57 348.053 341.775 346.105 335.28Z" fill="white"/>
</g>
<rect opacity="0.08" x="-46" y="282.02" width="526.04" height="526.04" rx="263.02" transform="rotate(-30 -46 282.02)" fill="url(#paint3_linear)" fill-opacity="0.8"/>
<rect opacity="0.08" x="39.4326" y="304.912" width="400.958" height="400.958" rx="200.479" transform="rotate(-30 39.4326 304.912)" fill="url(#paint4_linear)" fill-opacity="0.8"/>
<path d="M1282.23 770.307C1284.19 770.307 1285.77 768.723 1285.77 766.769C1285.77 764.815 1284.19 763.23 1282.23 763.23C1280.28 763.23 1278.69 764.815 1278.69 766.769C1278.69 768.723 1280.28 770.307 1282.23 770.307Z" fill="white"/>
<path d="M1282.23 749.077C1284.19 749.077 1285.77 747.493 1285.77 745.538C1285.77 743.584 1284.19 742 1282.23 742C1280.28 742 1278.69 743.584 1278.69 745.538C1278.69 747.493 1280.28 749.077 1282.23 749.077Z" fill="white"/>
<path d="M1282.23 791.539C1284.19 791.539 1285.77 789.955 1285.77 788C1285.77 786.046 1284.19 784.462 1282.23 784.462C1280.28 784.462 1278.69 786.046 1278.69 788C1278.69 789.955 1280.28 791.539 1282.23 791.539Z" fill="white"/>
<path d="M1282.23 812.769C1284.19 812.769 1285.77 811.185 1285.77 809.231C1285.77 807.277 1284.19 805.692 1282.23 805.692C1280.28 805.692 1278.69 807.277 1278.69 809.231C1278.69 811.185 1280.28 812.769 1282.23 812.769Z" fill="white"/>
<path d="M1282.23 834.001C1284.19 834.001 1285.77 832.417 1285.77 830.462C1285.77 828.508 1284.19 826.924 1282.23 826.924C1280.28 826.924 1278.69 828.508 1278.69 830.462C1278.69 832.417 1280.28 834.001 1282.23 834.001Z" fill="white"/>
<path d="M1303.46 770.307C1305.42 770.307 1307 768.723 1307 766.769C1307 764.815 1305.42 763.23 1303.46 763.23C1301.51 763.23 1299.92 764.815 1299.92 766.769C1299.92 768.723 1301.51 770.307 1303.46 770.307Z" fill="white"/>
<path d="M1303.46 749.077C1305.42 749.077 1307 747.493 1307 745.538C1307 743.584 1305.42 742 1303.46 742C1301.51 742 1299.92 743.584 1299.92 745.538C1299.92 747.493 1301.51 749.077 1303.46 749.077Z" fill="white"/>
<path d="M1303.46 791.539C1305.42 791.539 1307 789.955 1307 788C1307 786.046 1305.42 784.462 1303.46 784.462C1301.51 784.462 1299.92 786.046 1299.92 788C1299.92 789.955 1301.51 791.539 1303.46 791.539Z" fill="white"/>
<path d="M1303.46 812.769C1305.42 812.769 1307 811.185 1307 809.231C1307 807.277 1305.42 805.692 1303.46 805.692C1301.51 805.692 1299.92 807.277 1299.92 809.231C1299.92 811.185 1301.51 812.769 1303.46 812.769Z" fill="white"/>
<path d="M1303.46 834.001C1305.42 834.001 1307 832.417 1307 830.462C1307 828.508 1305.42 826.924 1303.46 826.924C1301.51 826.924 1299.92 828.508 1299.92 830.462C1299.92 832.417 1301.51 834.001 1303.46 834.001Z" fill="white"/>
<path d="M1239.77 770.307C1241.72 770.307 1243.31 768.723 1243.31 766.769C1243.31 764.815 1241.72 763.23 1239.77 763.23C1237.82 763.23 1236.23 764.815 1236.23 766.769C1236.23 768.723 1237.82 770.307 1239.77 770.307Z" fill="white"/>
<path d="M1218.54 770.307C1220.49 770.307 1222.08 768.723 1222.08 766.769C1222.08 764.815 1220.49 763.23 1218.54 763.23C1216.58 763.23 1215 764.815 1215 766.769C1215 768.723 1216.58 770.307 1218.54 770.307Z" fill="white"/>
<path d="M1239.77 749.077C1241.72 749.077 1243.31 747.493 1243.31 745.538C1243.31 743.584 1241.72 742 1239.77 742C1237.82 742 1236.23 743.584 1236.23 745.538C1236.23 747.493 1237.82 749.077 1239.77 749.077Z" fill="white"/>
<path d="M1239.77 791.539C1241.72 791.539 1243.31 789.955 1243.31 788C1243.31 786.046 1241.72 784.462 1239.77 784.462C1237.82 784.462 1236.23 786.046 1236.23 788C1236.23 789.955 1237.82 791.539 1239.77 791.539Z" fill="white"/>
<path d="M1239.77 812.769C1241.72 812.769 1243.31 811.185 1243.31 809.231C1243.31 807.277 1241.72 805.692 1239.77 805.692C1237.82 805.692 1236.23 807.277 1236.23 809.231C1236.23 811.185 1237.82 812.769 1239.77 812.769Z" fill="white"/>
<path d="M1239.77 834.001C1241.72 834.001 1243.31 832.417 1243.31 830.462C1243.31 828.508 1241.72 826.924 1239.77 826.924C1237.82 826.924 1236.23 828.508 1236.23 830.462C1236.23 832.417 1237.82 834.001 1239.77 834.001Z" fill="white"/>
<path d="M1261 770.307C1262.95 770.307 1264.54 768.723 1264.54 766.769C1264.54 764.815 1262.95 763.23 1261 763.23C1259.05 763.23 1257.46 764.815 1257.46 766.769C1257.46 768.723 1259.05 770.307 1261 770.307Z" fill="white"/>
<path d="M1261 749.077C1262.95 749.077 1264.54 747.493 1264.54 745.538C1264.54 743.584 1262.95 742 1261 742C1259.05 742 1257.46 743.584 1257.46 745.538C1257.46 747.493 1259.05 749.077 1261 749.077Z" fill="white"/>
<path d="M1261 791.539C1262.95 791.539 1264.54 789.955 1264.54 788C1264.54 786.046 1262.95 784.462 1261 784.462C1259.05 784.462 1257.46 786.046 1257.46 788C1257.46 789.955 1259.05 791.539 1261 791.539Z" fill="white"/>
<path d="M1261 812.769C1262.95 812.769 1264.54 811.185 1264.54 809.231C1264.54 807.277 1262.95 805.692 1261 805.692C1259.05 805.692 1257.46 807.277 1257.46 809.231C1257.46 811.185 1259.05 812.769 1261 812.769Z" fill="white"/>
<path d="M1261 834.001C1262.95 834.001 1264.54 832.417 1264.54 830.462C1264.54 828.508 1262.95 826.924 1261 826.924C1259.05 826.924 1257.46 828.508 1257.46 830.462C1257.46 832.417 1259.05 834.001 1261 834.001Z" fill="white"/>
<path d="M1218.54 749.077C1220.49 749.077 1222.08 747.493 1222.08 745.538C1222.08 743.584 1220.49 742 1218.54 742C1216.58 742 1215 743.584 1215 745.538C1215 747.493 1216.58 749.077 1218.54 749.077Z" fill="white"/>
<path d="M1218.54 791.539C1220.49 791.539 1222.08 789.955 1222.08 788C1222.08 786.046 1220.49 784.462 1218.54 784.462C1216.58 784.462 1215 786.046 1215 788C1215 789.955 1216.58 791.539 1218.54 791.539Z" fill="white"/>
<path d="M1218.54 812.769C1220.49 812.769 1222.08 811.185 1222.08 809.231C1222.08 807.277 1220.49 805.692 1218.54 805.692C1216.58 805.692 1215 807.277 1215 809.231C1215 811.185 1216.58 812.769 1218.54 812.769Z" fill="white"/>
<path d="M1218.54 834.001C1220.49 834.001 1222.08 832.417 1222.08 830.462C1222.08 828.508 1220.49 826.924 1218.54 826.924C1216.58 826.924 1215 828.508 1215 830.462C1215 832.417 1216.58 834.001 1218.54 834.001Z" fill="white"/>
<rect x="-126.707" y="976.049" width="409.608" height="409.608" rx="151" transform="rotate(-30 -126.707 976.049)" fill="url(#paint5_linear)" fill-opacity="0.8"/>
<rect width="32.1954" height="32.1954" rx="16.0977" transform="matrix(-0.965926 -0.258819 -0.258819 0.965926 49.4312 825.333)" fill="url(#paint6_linear)" fill-opacity="0.8"/>
<rect x="-212.007" y="988.171" width="458.002" height="458.002" rx="150.5" transform="rotate(-30 -212.007 988.171)" stroke="#FFD054"/>
<path d="M306.231 929.307C308.185 929.307 309.769 927.723 309.769 925.769C309.769 923.815 308.185 922.23 306.231 922.23C304.277 922.23 302.692 923.815 302.692 925.769C302.692 927.723 304.277 929.307 306.231 929.307Z" fill="white"/>
<path d="M306.231 908.077C308.186 908.077 309.77 906.493 309.77 904.538C309.77 902.584 308.186 901 306.231 901C304.277 901 302.693 902.584 302.693 904.538C302.693 906.493 304.277 908.077 306.231 908.077Z" fill="white"/>
<path d="M306.231 950.539C308.185 950.539 309.769 948.955 309.769 947C309.769 945.046 308.185 943.462 306.231 943.462C304.277 943.462 302.692 945.046 302.692 947C302.692 948.955 304.277 950.539 306.231 950.539Z" fill="white"/>
<path d="M306.231 971.769C308.185 971.769 309.769 970.185 309.769 968.231C309.769 966.277 308.185 964.692 306.231 964.692C304.277 964.692 302.692 966.277 302.692 968.231C302.692 970.185 304.277 971.769 306.231 971.769Z" fill="white"/>
<path d="M306.231 993.001C308.185 993.001 309.769 991.417 309.769 989.462C309.769 987.508 308.185 985.924 306.231 985.924C304.277 985.924 302.692 987.508 302.692 989.462C302.692 991.417 304.277 993.001 306.231 993.001Z" fill="white"/>
<path d="M327.462 929.307C329.416 929.307 331 927.723 331 925.769C331 923.815 329.416 922.23 327.462 922.23C325.507 922.23 323.923 923.815 323.923 925.769C323.923 927.723 325.507 929.307 327.462 929.307Z" fill="white"/>
<path d="M327.462 908.077C329.416 908.077 331.001 906.493 331.001 904.538C331.001 902.584 329.416 901 327.462 901C325.508 901 323.924 902.584 323.924 904.538C323.924 906.493 325.508 908.077 327.462 908.077Z" fill="white"/>
<path d="M327.462 950.539C329.416 950.539 331 948.955 331 947C331 945.046 329.416 943.462 327.462 943.462C325.507 943.462 323.923 945.046 323.923 947C323.923 948.955 325.507 950.539 327.462 950.539Z" fill="white"/>
<path d="M327.462 971.769C329.416 971.769 331 970.185 331 968.231C331 966.277 329.416 964.692 327.462 964.692C325.507 964.692 323.923 966.277 323.923 968.231C323.923 970.185 325.507 971.769 327.462 971.769Z" fill="white"/>
<path d="M327.462 993.001C329.416 993.001 331 991.417 331 989.462C331 987.508 329.416 985.924 327.462 985.924C325.507 985.924 323.923 987.508 323.923 989.462C323.923 991.417 325.507 993.001 327.462 993.001Z" fill="white"/>
<path d="M263.769 929.307C265.724 929.307 267.308 927.723 267.308 925.769C267.308 923.815 265.724 922.23 263.769 922.23C261.815 922.23 260.231 923.815 260.231 925.769C260.231 927.723 261.815 929.307 263.769 929.307Z" fill="white"/>
<path d="M242.538 929.307C244.493 929.307 246.077 927.723 246.077 925.769C246.077 923.815 244.493 922.23 242.538 922.23C240.584 922.23 239 923.815 239 925.769C239 927.723 240.584 929.307 242.538 929.307Z" fill="white"/>
<path d="M263.769 908.077C265.724 908.077 267.308 906.493 267.308 904.538C267.308 902.584 265.724 901 263.769 901C261.815 901 260.231 902.584 260.231 904.538C260.231 906.493 261.815 908.077 263.769 908.077Z" fill="white"/>
<path d="M263.769 950.539C265.724 950.539 267.308 948.955 267.308 947C267.308 945.046 265.724 943.462 263.769 943.462C261.815 943.462 260.231 945.046 260.231 947C260.231 948.955 261.815 950.539 263.769 950.539Z" fill="white"/>
<path d="M263.769 971.769C265.724 971.769 267.308 970.185 267.308 968.231C267.308 966.277 265.724 964.692 263.769 964.692C261.815 964.692 260.231 966.277 260.231 968.231C260.231 970.185 261.815 971.769 263.769 971.769Z" fill="white"/>
<path d="M263.769 993.001C265.724 993.001 267.308 991.417 267.308 989.462C267.308 987.508 265.724 985.924 263.769 985.924C261.815 985.924 260.231 987.508 260.231 989.462C260.231 991.417 261.815 993.001 263.769 993.001Z" fill="white"/>
<path d="M285 929.307C286.954 929.307 288.539 927.723 288.539 925.769C288.539 923.815 286.954 922.23 285 922.23C283.046 922.23 281.462 923.815 281.462 925.769C281.462 927.723 283.046 929.307 285 929.307Z" fill="white"/>
<path d="M285 908.077C286.954 908.077 288.539 906.493 288.539 904.538C288.539 902.584 286.954 901 285 901C283.046 901 281.462 902.584 281.462 904.538C281.462 906.493 283.046 908.077 285 908.077Z" fill="white"/>
<path d="M285 950.539C286.954 950.539 288.539 948.955 288.539 947C288.539 945.046 286.954 943.462 285 943.462C283.046 943.462 281.462 945.046 281.462 947C281.462 948.955 283.046 950.539 285 950.539Z" fill="white"/>
<path d="M285 971.769C286.954 971.769 288.539 970.185 288.539 968.231C288.539 966.277 286.954 964.692 285 964.692C283.046 964.692 281.462 966.277 281.462 968.231C281.462 970.185 283.046 971.769 285 971.769Z" fill="white"/>
<path d="M285 993.001C286.954 993.001 288.539 991.417 288.539 989.462C288.539 987.508 286.954 985.924 285 985.924C283.046 985.924 281.462 987.508 281.462 989.462C281.462 991.417 283.046 993.001 285 993.001Z" fill="white"/>
<path d="M242.538 908.077C244.493 908.077 246.077 906.493 246.077 904.538C246.077 902.584 244.493 901 242.538 901C240.584 901 239 902.584 239 904.538C239 906.493 240.584 908.077 242.538 908.077Z" fill="white"/>
<path d="M242.538 950.539C244.493 950.539 246.077 948.955 246.077 947C246.077 945.046 244.493 943.462 242.538 943.462C240.584 943.462 239 945.046 239 947C239 948.955 240.584 950.539 242.538 950.539Z" fill="white"/>
<path d="M242.538 971.769C244.493 971.769 246.077 970.185 246.077 968.231C246.077 966.277 244.493 964.692 242.538 964.692C240.584 964.692 239 966.277 239 968.231C239 970.185 240.584 971.769 242.538 971.769Z" fill="white"/>
<path d="M242.538 993.001C244.493 993.001 246.077 991.417 246.077 989.462C246.077 987.508 244.493 985.924 242.538 985.924C240.584 985.924 239 987.508 239 989.462C239 991.417 240.584 993.001 242.538 993.001Z" fill="white"/>
<path d="M114.067 778.578L128.578 764.067L133.89 783.89L114.067 778.578Z" fill="#FF832A"/>
<rect x="888.097" y="59.3496" width="540.503" height="540.503" rx="151" transform="rotate(-30 888.097 59.3496)" fill="url(#paint7_linear)"/>
<rect x="808.683" y="38.0697" width="656.773" height="656.773" rx="150.5" transform="rotate(-30 808.683 38.0697)" stroke="#FF9448"/>
<circle cx="853" cy="86" r="24" fill="#FB8533"/>
<path d="M801.587 155.097L809.097 147.587L811.846 157.846L801.587 155.097Z" fill="#FFD874"/>
<path d="M762.591 47.8543L774.854 35.5917L779.342 52.3426L762.591 47.8543Z" fill="#FB8533"/>
</g>
<defs>
<linearGradient id="paint0_linear" x1="720" y1="0" x2="1537" y2="1278" gradientUnits="userSpaceOnUse">
<stop stop-color="#FFF7F5"/>
<stop offset="1" stop-color="#FFE9E5" stop-opacity="0"/>
</linearGradient>
<linearGradient id="paint1_linear" x1="30.02" y1="10.0195" x2="30.02" y2="536.06" gradientUnits="userSpaceOnUse">
<stop stop-color="#FF9448"/>
<stop offset="1" stop-color="#FF9448" stop-opacity="0"/>
</linearGradient>
<linearGradient id="paint2_linear" x1="1690.4" y1="860.776" x2="1690.4" y2="1386.82" gradientUnits="userSpaceOnUse">
<stop stop-color="#FF9448"/>
<stop offset="1" stop-color="#FF9448" stop-opacity="0"/>
</linearGradient>
<linearGradient id="paint3_linear" x1="217.02" y1="282.02" x2="217.02" y2="808.059" gradientUnits="userSpaceOnUse">
<stop stop-color="#FF9448"/>
<stop offset="1" stop-color="#FF9448" stop-opacity="0"/>
</linearGradient>
<linearGradient id="paint4_linear" x1="239.912" y1="304.912" x2="239.912" y2="705.87" gradientUnits="userSpaceOnUse">
<stop stop-color="#FF9448"/>
<stop offset="1" stop-color="#FF9448" stop-opacity="0"/>
</linearGradient>
<linearGradient id="paint5_linear" x1="78.0974" y1="976.049" x2="78.0974" y2="1385.66" gradientUnits="userSpaceOnUse">
<stop stop-color="#FFD054"/>
<stop offset="1" stop-color="#FFD054"/>
</linearGradient>
<linearGradient id="paint6_linear" x1="16.0977" y1="0" x2="16.0977" y2="32.1954" gradientUnits="userSpaceOnUse">
<stop stop-color="#FFD054"/>
<stop offset="1" stop-color="#FFD054"/>
</linearGradient>
<linearGradient id="paint7_linear" x1="1158.35" y1="59.3496" x2="1158.35" y2="599.852" gradientUnits="userSpaceOnUse">
<stop stop-color="#FF9448"/>
<stop offset="1" stop-color="#FF9448"/>
</linearGradient>
<clipPath id="clip0">
<rect width="1440" height="1024" fill="white"/>
</clipPath>
<clipPath id="clip1">
<rect width="334" height="256.558" fill="white" transform="translate(152 242)"/>
</clipPath>
</defs>
</svg>
