<svg width="16" height="16" viewBox="0 0 16 16" fill="none" xmlns="http://www.w3.org/2000/svg">
<path d="M1 13.3503L4.06878 12.9539L5.28256 16.0002L8.18942 10.6019L3.9088 7.95203L1 13.3503Z" fill="#318C89"/>
<path d="M14.5994 13.3498L11.5306 12.9534L10.3168 15.9997L7.40869 10.6007L11.6913 7.95081L14.5994 13.3498Z" fill="#318C89"/>
<path d="M8.19069 11.1309C11.2834 11.1309 13.7906 8.63916 13.7906 5.56545C13.7906 2.49174 11.2834 0 8.19069 0C5.09797 0 2.59082 2.49174 2.59082 5.56545C2.59082 8.63916 5.09797 11.1309 8.19069 11.1309Z" fill="#49CBCE"/>
<path d="M7.29604 4.67726L8.30088 1.76636L9.30571 4.67726L12.1015 5.72346L9.30571 6.76966L8.30088 9.68056L7.29604 6.76966L4.50024 5.72346L7.29604 4.67726Z" fill="white"/>
</svg>
