<svg width="34" height="36" viewBox="0 0 34 36" fill="none" xmlns="http://www.w3.org/2000/svg">
<g clip-path="url(#clip0)">
<path d="M16.1 25.4L10.5 35.0999L7.5 28.1L0 29.1L5.4 19.7C7.8 23 11.7 25.2 16.1 25.4Z" fill="#DF660F"/>
<path d="M33.2999 29.1L25.7999 28.2L22.7999 35.2L17.2 25.5C21.6 25.3 25.4999 23.1 27.7999 19.7L33.2999 29.1Z" fill="#DF660F"/>
<path d="M16.6 0C10.2 0 5 5.2 5 11.7C5 18.2 10.2 23.4 16.7 23.4C23.2 23.4 28.4 18.2 28.4 11.7C28.4 5.2 23.1 0 16.6 0ZM18.5 13.5L16.6 18.7L14.7 13.5L9.5 11.6L14.7 9.7L16.6 4.5L18.5 9.7L23.7 11.6L18.5 13.5Z" fill="#FF8228"/>
</g>
<defs>
<clipPath id="clip0">
<rect width="33.3" height="35.1" fill="white"/>
</clipPath>
</defs>
</svg>
