<svg width="34" height="36" viewBox="0 0 34 36" fill="none" xmlns="http://www.w3.org/2000/svg">
<g clip-path="url(#clip0)">
<path d="M5.42161 20.0638C7.80808 23.1947 11.5465 25.2946 15.7644 25.5812L10.5265 34.654L7.68383 28.0212L7.62403 27.8816L7.47357 27.9017L0.37531 28.8481L5.42161 20.0638Z" fill="url(#paint0_linear)" stroke="#EFF2F6" stroke-width="0.4"/>
<path d="M25.6161 28.1212L22.7735 34.754L17.5355 25.6812C21.7509 25.3947 25.488 23.2944 27.7855 20.0713L32.924 28.8534L25.8238 28.0014L25.6751 27.9835L25.6161 28.1212Z" fill="url(#paint1_linear)" stroke="#EFF2F6" stroke-width="0.4"/>
<path d="M16.6939 18.7343L18.578 13.578L23.7343 11.6939L23.9914 11.6L23.7343 11.5061L18.578 9.62202L16.6939 4.46568L16.6 4.20862L16.5061 4.46568L14.622 9.62202L9.46568 11.5061L9.20862 11.6L9.46568 11.6939L14.622 13.578L16.5061 18.7343L16.6 18.9914L16.6939 18.7343ZM5.1 11.7C5.1 5.25467 10.2558 0.1 16.6 0.1C23.0459 0.1 28.3 5.25633 28.3 11.7C28.3 18.1448 23.1448 23.3 16.7 23.3C10.2552 23.3 5.1 18.1448 5.1 11.7Z" fill="url(#paint2_linear)" stroke="#EBEEF2" stroke-width="0.2"/>
</g>
<defs>
<linearGradient id="paint0_linear" x1="8.05" y1="19.7" x2="8.05" y2="35.0999" gradientUnits="userSpaceOnUse">
<stop stop-color="#DEE2EB"/>
<stop offset="1" stop-color="#FBFCFD"/>
</linearGradient>
<linearGradient id="paint1_linear" x1="25.25" y1="19.7" x2="25.25" y2="35.2" gradientUnits="userSpaceOnUse">
<stop stop-color="#DEE2EB"/>
<stop offset="1" stop-color="#FBFCFD"/>
</linearGradient>
<linearGradient id="paint2_linear" x1="28" y1="6" x2="10" y2="23" gradientUnits="userSpaceOnUse">
<stop stop-color="#EBEFF4"/>
<stop offset="0.479167" stop-color="#FAFBFD"/>
<stop offset="1" stop-color="#E8EDF2"/>
</linearGradient>
<clipPath id="clip0">
<rect width="33.3" height="35.1" fill="white"/>
</clipPath>
</defs>
</svg>
